<mxfile host="app.diagrams.net" modified="2021-05-18T00:43:41.646Z" agent="5.0 (Windows NT 10.0; Win64; x64) AppleWebKit/537.36 (KHTML, like Gecko) Chrome/90.0.4430.212 Safari/537.36" etag="oDG2eVr21O6EstsMg_Yf" version="14.6.11" type="github" pages="2">
  <diagram id="yuDhf0TOWfs8fFIYCiWx" name="Page-1">
    <mxGraphModel dx="2272" dy="794" grid="1" gridSize="10" guides="1" tooltips="1" connect="1" arrows="1" fold="1" page="1" pageScale="1" pageWidth="850" pageHeight="1100" math="0" shadow="0">
      <root>
        <mxCell id="0" />
        <mxCell id="1" parent="0" />
        <mxCell id="6kUc-nbutkC8Rg-sOoLc-2" value="" style="strokeWidth=1;shadow=0;dashed=0;align=center;html=1;shape=mxgraph.mockup.containers.browserWindow;rSize=0;strokeColor=#666666;strokeColor2=#008cff;strokeColor3=#c4c4c4;mainText=,;recursiveResize=0;" parent="1" vertex="1">
          <mxGeometry x="-30" y="20" width="860" height="1030" as="geometry" />
        </mxCell>
        <mxCell id="6kUc-nbutkC8Rg-sOoLc-3" value="Page 1" style="strokeWidth=1;shadow=0;dashed=0;align=center;html=1;shape=mxgraph.mockup.containers.anchor;fontSize=17;fontColor=#666666;align=left;" parent="6kUc-nbutkC8Rg-sOoLc-2" vertex="1">
          <mxGeometry x="60" y="12" width="110" height="26" as="geometry" />
        </mxCell>
        <mxCell id="6kUc-nbutkC8Rg-sOoLc-4" value="https://www.draw.io" style="strokeWidth=1;shadow=0;dashed=0;align=center;html=1;shape=mxgraph.mockup.containers.anchor;rSize=0;fontSize=17;fontColor=#666666;align=left;" parent="6kUc-nbutkC8Rg-sOoLc-2" vertex="1">
          <mxGeometry x="130" y="60" width="250" height="26" as="geometry" />
        </mxCell>
        <mxCell id="6kUc-nbutkC8Rg-sOoLc-5" value="" style="rounded=0;whiteSpace=wrap;html=1;fillColor=#FFFF33;" parent="6kUc-nbutkC8Rg-sOoLc-2" vertex="1">
          <mxGeometry y="110" width="860" height="60" as="geometry" />
        </mxCell>
        <mxCell id="6kUc-nbutkC8Rg-sOoLc-6" value="&lt;font face=&quot;Times New Roman&quot;&gt;Homepage&lt;/font&gt;" style="rounded=1;whiteSpace=wrap;html=1;" parent="6kUc-nbutkC8Rg-sOoLc-2" vertex="1">
          <mxGeometry x="10" y="120" width="90" height="40" as="geometry" />
        </mxCell>
        <mxCell id="6kUc-nbutkC8Rg-sOoLc-7" value="&lt;font face=&quot;Times New Roman&quot;&gt;Hobbies/interests&lt;/font&gt;" style="rounded=1;whiteSpace=wrap;html=1;" parent="6kUc-nbutkC8Rg-sOoLc-2" vertex="1">
          <mxGeometry x="110" y="120" width="90" height="40" as="geometry" />
        </mxCell>
        <mxCell id="6kUc-nbutkC8Rg-sOoLc-8" value="&lt;font face=&quot;Times New Roman&quot;&gt;Culture/ethnitcity&lt;/font&gt;" style="rounded=1;whiteSpace=wrap;html=1;" parent="6kUc-nbutkC8Rg-sOoLc-2" vertex="1">
          <mxGeometry x="210" y="120" width="90" height="40" as="geometry" />
        </mxCell>
        <mxCell id="6kUc-nbutkC8Rg-sOoLc-9" value="&lt;font face=&quot;Times New Roman&quot;&gt;Contact me&lt;/font&gt;" style="rounded=1;whiteSpace=wrap;html=1;" parent="6kUc-nbutkC8Rg-sOoLc-2" vertex="1">
          <mxGeometry x="310" y="120" width="90" height="40" as="geometry" />
        </mxCell>
        <mxCell id="6kUc-nbutkC8Rg-sOoLc-10" value="&lt;font face=&quot;Times New Roman&quot;&gt;search&lt;/font&gt;" style="rounded=1;whiteSpace=wrap;html=1;" parent="6kUc-nbutkC8Rg-sOoLc-2" vertex="1">
          <mxGeometry x="410" y="120" width="450" height="37.5" as="geometry" />
        </mxCell>
        <mxCell id="6kUc-nbutkC8Rg-sOoLc-12" value="" style="verticalLabelPosition=bottom;shadow=0;dashed=0;align=center;html=1;verticalAlign=top;strokeWidth=1;shape=mxgraph.mockup.containers.userFemale;strokeColor=#666666;strokeColor2=#008cff;" parent="6kUc-nbutkC8Rg-sOoLc-2" vertex="1">
          <mxGeometry x="10" y="220" width="195" height="210" as="geometry" />
        </mxCell>
        <mxCell id="6kUc-nbutkC8Rg-sOoLc-14" value="&lt;font style=&quot;font-size: 15px&quot;&gt;#FFFFCC&lt;br&gt;information&lt;/font&gt;" style="rounded=0;whiteSpace=wrap;html=1;fontSize=30;fillColor=#FFFFCC;" parent="6kUc-nbutkC8Rg-sOoLc-2" vertex="1">
          <mxGeometry x="220" y="220" width="630" height="210" as="geometry" />
        </mxCell>
        <mxCell id="6kUc-nbutkC8Rg-sOoLc-16" value="&lt;font style=&quot;font-size: 15px&quot;&gt;#FFFF66&lt;br&gt;&lt;/font&gt;&lt;font style=&quot;font-size: 15px&quot;&gt;Picture&lt;/font&gt;" style="rounded=0;whiteSpace=wrap;html=1;fontSize=30;fillColor=#FFFF66;" parent="6kUc-nbutkC8Rg-sOoLc-2" vertex="1">
          <mxGeometry x="10" y="450" width="840" height="270" as="geometry" />
        </mxCell>
        <mxCell id="6kUc-nbutkC8Rg-sOoLc-15" value="&lt;font style=&quot;font-size: 15px&quot;&gt;#FFFF66&lt;br&gt;&amp;nbsp;picture&lt;/font&gt;" style="rounded=0;whiteSpace=wrap;html=1;fontSize=30;fillColor=#FFFF99;" parent="6kUc-nbutkC8Rg-sOoLc-2" vertex="1">
          <mxGeometry x="10" y="740" width="840" height="270" as="geometry" />
        </mxCell>
        <mxCell id="1_Nw49JVUMyWTImv5nWf-1" value="" style="shape=process;whiteSpace=wrap;html=1;backgroundOutline=1;fontSize=25;" parent="6kUc-nbutkC8Rg-sOoLc-2" vertex="1">
          <mxGeometry y="170" width="860" height="50" as="geometry" />
        </mxCell>
        <mxCell id="6kUc-nbutkC8Rg-sOoLc-13" value="&lt;font face=&quot;Lucida Console&quot; style=&quot;font-size: 25px;&quot;&gt;Homepage&lt;/font&gt;" style="text;html=1;strokeColor=none;fillColor=none;align=center;verticalAlign=middle;whiteSpace=wrap;rounded=0;fontSize=25;fontStyle=3" parent="6kUc-nbutkC8Rg-sOoLc-2" vertex="1">
          <mxGeometry x="337.5" y="165" width="185" height="60" as="geometry" />
        </mxCell>
        <mxCell id="6kUc-nbutkC8Rg-sOoLc-18" value="" style="strokeWidth=1;shadow=0;dashed=0;align=center;html=1;shape=mxgraph.mockup.containers.browserWindow;rSize=0;strokeColor=#666666;strokeColor2=#008cff;strokeColor3=#c4c4c4;mainText=,;recursiveResize=0;fontSize=30;" parent="1" vertex="1">
          <mxGeometry x="-10" y="1080" width="860" height="1100" as="geometry" />
        </mxCell>
        <mxCell id="6kUc-nbutkC8Rg-sOoLc-19" value="Page 2" style="strokeWidth=1;shadow=0;dashed=0;align=center;html=1;shape=mxgraph.mockup.containers.anchor;fontSize=17;fontColor=#666666;align=left;" parent="6kUc-nbutkC8Rg-sOoLc-18" vertex="1">
          <mxGeometry x="60" y="12" width="110" height="26" as="geometry" />
        </mxCell>
        <mxCell id="6kUc-nbutkC8Rg-sOoLc-20" value="https://www.draw.io" style="strokeWidth=1;shadow=0;dashed=0;align=center;html=1;shape=mxgraph.mockup.containers.anchor;rSize=0;fontSize=17;fontColor=#666666;align=left;" parent="6kUc-nbutkC8Rg-sOoLc-18" vertex="1">
          <mxGeometry x="130" y="60" width="250" height="26" as="geometry" />
        </mxCell>
        <mxCell id="6kUc-nbutkC8Rg-sOoLc-23" value="" style="rounded=0;whiteSpace=wrap;html=1;fontSize=30;fontColor=#FF0000;fillColor=#7F00FF;" parent="6kUc-nbutkC8Rg-sOoLc-18" vertex="1">
          <mxGeometry y="110" width="860" height="60" as="geometry" />
        </mxCell>
        <mxCell id="6kUc-nbutkC8Rg-sOoLc-24" value="Homepage" style="rounded=1;whiteSpace=wrap;html=1;" parent="6kUc-nbutkC8Rg-sOoLc-18" vertex="1">
          <mxGeometry x="12" y="120" width="90" height="40" as="geometry" />
        </mxCell>
        <mxCell id="6kUc-nbutkC8Rg-sOoLc-30" value="Hobbies/Interest" style="rounded=1;whiteSpace=wrap;html=1;" parent="6kUc-nbutkC8Rg-sOoLc-18" vertex="1">
          <mxGeometry x="112" y="120" width="90" height="40" as="geometry" />
        </mxCell>
        <mxCell id="6kUc-nbutkC8Rg-sOoLc-31" value="Culture/Ethnicity" style="rounded=1;whiteSpace=wrap;html=1;" parent="6kUc-nbutkC8Rg-sOoLc-18" vertex="1">
          <mxGeometry x="210" y="120" width="90" height="40" as="geometry" />
        </mxCell>
        <mxCell id="6kUc-nbutkC8Rg-sOoLc-32" value="Contact Me" style="rounded=1;whiteSpace=wrap;html=1;" parent="6kUc-nbutkC8Rg-sOoLc-18" vertex="1">
          <mxGeometry x="312" y="120" width="90" height="40" as="geometry" />
        </mxCell>
        <mxCell id="6kUc-nbutkC8Rg-sOoLc-33" value="&lt;font face=&quot;Times New Roman&quot;&gt;search&lt;/font&gt;" style="rounded=1;whiteSpace=wrap;html=1;" parent="6kUc-nbutkC8Rg-sOoLc-18" vertex="1">
          <mxGeometry x="410" y="122.5" width="450" height="37.5" as="geometry" />
        </mxCell>
        <mxCell id="6kUc-nbutkC8Rg-sOoLc-35" value="&lt;b&gt;&lt;font face=&quot;Lucida Console&quot;&gt;Culture/Ethnicity&lt;/font&gt;&lt;/b&gt;" style="text;html=1;strokeColor=none;fillColor=none;align=center;verticalAlign=middle;whiteSpace=wrap;rounded=0;fontSize=30;" parent="6kUc-nbutkC8Rg-sOoLc-18" vertex="1">
          <mxGeometry x="-48" y="160" width="450" height="100" as="geometry" />
        </mxCell>
        <mxCell id="6kUc-nbutkC8Rg-sOoLc-36" value="&lt;font style=&quot;font-size: 16px&quot;&gt;#CC99FF&lt;br&gt;header&lt;/font&gt;" style="rounded=0;whiteSpace=wrap;html=1;fontSize=30;fillColor=#CC99FF;" parent="6kUc-nbutkC8Rg-sOoLc-18" vertex="1">
          <mxGeometry x="20" y="240" width="400" height="220" as="geometry" />
        </mxCell>
        <mxCell id="6kUc-nbutkC8Rg-sOoLc-37" value="&lt;font style=&quot;font-size: 16px&quot;&gt;#E5CCFF&lt;br&gt;information&lt;/font&gt;" style="rounded=0;whiteSpace=wrap;html=1;fontSize=30;fillColor=#E5CCFF;" parent="6kUc-nbutkC8Rg-sOoLc-18" vertex="1">
          <mxGeometry x="435" y="240" width="400" height="220" as="geometry" />
        </mxCell>
        <mxCell id="6kUc-nbutkC8Rg-sOoLc-38" value="&lt;font style=&quot;font-size: 16px&quot;&gt;#B266FF&lt;br&gt;picure&lt;br&gt;&lt;/font&gt;" style="rounded=0;whiteSpace=wrap;html=1;fontSize=30;fillColor=#B266FF;" parent="6kUc-nbutkC8Rg-sOoLc-18" vertex="1">
          <mxGeometry x="20" y="470" width="820" height="370" as="geometry" />
        </mxCell>
        <mxCell id="6kUc-nbutkC8Rg-sOoLc-39" value="&lt;font style=&quot;font-size: 16px&quot;&gt;#7F00FF&lt;br&gt;Footer&lt;br&gt;&lt;/font&gt;" style="rounded=0;whiteSpace=wrap;html=1;fontSize=30;fillColor=#7F00FF;" parent="6kUc-nbutkC8Rg-sOoLc-18" vertex="1">
          <mxGeometry x="15" y="860" width="820" height="220" as="geometry" />
        </mxCell>
        <mxCell id="1_Nw49JVUMyWTImv5nWf-3" value="" style="shape=image;html=1;verticalAlign=top;verticalLabelPosition=bottom;labelBackgroundColor=#ffffff;imageAspect=0;aspect=fixed;image=https://cdn1.iconfinder.com/data/icons/ensign-11/512/258_Ensign_Flag_Nation_tonga-128.png;fontSize=25;" parent="6kUc-nbutkC8Rg-sOoLc-18" vertex="1">
          <mxGeometry x="735" y="160" width="100" height="100" as="geometry" />
        </mxCell>
        <mxCell id="1_Nw49JVUMyWTImv5nWf-7" value="" style="shape=image;html=1;verticalAlign=top;verticalLabelPosition=bottom;labelBackgroundColor=#ffffff;imageAspect=0;aspect=fixed;image=https://cdn2.iconfinder.com/data/icons/flags_gosquared/64/South-Africa.png;fontSize=25;" parent="6kUc-nbutkC8Rg-sOoLc-18" vertex="1">
          <mxGeometry x="630" y="165" width="90" height="90" as="geometry" />
        </mxCell>
        <mxCell id="_le38-5Dojq-kRgqYlVq-1" value="" style="strokeWidth=1;shadow=0;dashed=0;align=center;html=1;shape=mxgraph.mockup.containers.browserWindow;rSize=0;strokeColor=#666666;strokeColor2=#008cff;strokeColor3=#c4c4c4;mainText=,;recursiveResize=0;" parent="1" vertex="1">
          <mxGeometry y="3320" width="860" height="1030" as="geometry" />
        </mxCell>
        <mxCell id="_le38-5Dojq-kRgqYlVq-2" value="page 4&lt;br&gt;" style="strokeWidth=1;shadow=0;dashed=0;align=center;html=1;shape=mxgraph.mockup.containers.anchor;fontSize=17;fontColor=#666666;align=left;" parent="_le38-5Dojq-kRgqYlVq-1" vertex="1">
          <mxGeometry x="60" y="12" width="110" height="26" as="geometry" />
        </mxCell>
        <mxCell id="_le38-5Dojq-kRgqYlVq-3" value="https://www.draw.io" style="strokeWidth=1;shadow=0;dashed=0;align=center;html=1;shape=mxgraph.mockup.containers.anchor;rSize=0;fontSize=17;fontColor=#666666;align=left;" parent="_le38-5Dojq-kRgqYlVq-1" vertex="1">
          <mxGeometry x="130" y="60" width="250" height="26" as="geometry" />
        </mxCell>
        <mxCell id="_le38-5Dojq-kRgqYlVq-5" value="" style="rounded=0;whiteSpace=wrap;html=1;fillColor=#FF0000;" parent="_le38-5Dojq-kRgqYlVq-1" vertex="1">
          <mxGeometry y="110" width="860" height="60" as="geometry" />
        </mxCell>
        <mxCell id="_le38-5Dojq-kRgqYlVq-6" value="Homepage" style="rounded=1;whiteSpace=wrap;html=1;" parent="_le38-5Dojq-kRgqYlVq-1" vertex="1">
          <mxGeometry x="10" y="120" width="90" height="40" as="geometry" />
        </mxCell>
        <mxCell id="_le38-5Dojq-kRgqYlVq-7" value="Hobbies/Interest" style="rounded=1;whiteSpace=wrap;html=1;" parent="_le38-5Dojq-kRgqYlVq-1" vertex="1">
          <mxGeometry x="110" y="120" width="90" height="40" as="geometry" />
        </mxCell>
        <mxCell id="_le38-5Dojq-kRgqYlVq-8" value="Culture ethnicity" style="rounded=1;whiteSpace=wrap;html=1;" parent="_le38-5Dojq-kRgqYlVq-1" vertex="1">
          <mxGeometry x="210" y="120" width="90" height="40" as="geometry" />
        </mxCell>
        <mxCell id="_le38-5Dojq-kRgqYlVq-9" value="Contact" style="rounded=1;whiteSpace=wrap;html=1;arcSize=15;" parent="_le38-5Dojq-kRgqYlVq-1" vertex="1">
          <mxGeometry x="310" y="120" width="90" height="40" as="geometry" />
        </mxCell>
        <mxCell id="_le38-5Dojq-kRgqYlVq-10" value="&lt;font face=&quot;Times New Roman&quot;&gt;search&lt;/font&gt;" style="rounded=1;whiteSpace=wrap;html=1;" parent="_le38-5Dojq-kRgqYlVq-1" vertex="1">
          <mxGeometry x="410" y="120" width="450" height="40" as="geometry" />
        </mxCell>
        <mxCell id="_le38-5Dojq-kRgqYlVq-11" value="&lt;font style=&quot;font-size: 30px&quot;&gt;&lt;b&gt;Contact Info&lt;/b&gt;&lt;/font&gt;" style="text;html=1;strokeColor=none;fillColor=none;align=center;verticalAlign=middle;whiteSpace=wrap;rounded=0;" parent="_le38-5Dojq-kRgqYlVq-1" vertex="1">
          <mxGeometry x="-35" y="150" width="270" height="90" as="geometry" />
        </mxCell>
        <mxCell id="_le38-5Dojq-kRgqYlVq-13" value="Contact information" style="text;html=1;strokeColor=none;fillColor=none;align=center;verticalAlign=middle;whiteSpace=wrap;rounded=0;" parent="_le38-5Dojq-kRgqYlVq-1" vertex="1">
          <mxGeometry x="-30" y="240" width="200" height="20" as="geometry" />
        </mxCell>
        <mxCell id="6kUc-nbutkC8Rg-sOoLc-40" value="" style="strokeWidth=1;shadow=0;dashed=0;align=center;html=1;shape=mxgraph.mockup.containers.browserWindow;rSize=0;strokeColor=#666666;strokeColor2=#008cff;strokeColor3=#c4c4c4;mainText=,;recursiveResize=0;fontSize=30;fontColor=#FF0000;fillColor=#FFFFFF;" parent="1" vertex="1">
          <mxGeometry x="-10" y="2200" width="860" height="1040" as="geometry" />
        </mxCell>
        <mxCell id="6kUc-nbutkC8Rg-sOoLc-41" value="Page 3" style="strokeWidth=1;shadow=0;dashed=0;align=center;html=1;shape=mxgraph.mockup.containers.anchor;fontSize=17;fontColor=#666666;align=left;" parent="6kUc-nbutkC8Rg-sOoLc-40" vertex="1">
          <mxGeometry x="60" y="12" width="110" height="26" as="geometry" />
        </mxCell>
        <mxCell id="6kUc-nbutkC8Rg-sOoLc-42" value="https://www.draw.io" style="strokeWidth=1;shadow=0;dashed=0;align=center;html=1;shape=mxgraph.mockup.containers.anchor;rSize=0;fontSize=17;fontColor=#666666;align=left;" parent="6kUc-nbutkC8Rg-sOoLc-40" vertex="1">
          <mxGeometry x="130" y="60" width="250" height="26" as="geometry" />
        </mxCell>
        <mxCell id="6kUc-nbutkC8Rg-sOoLc-43" value="" style="rounded=0;whiteSpace=wrap;html=1;fillColor=#66FFFF;" parent="6kUc-nbutkC8Rg-sOoLc-40" vertex="1">
          <mxGeometry y="110" width="860" height="60" as="geometry" />
        </mxCell>
        <mxCell id="6kUc-nbutkC8Rg-sOoLc-44" value="Homepage" style="rounded=1;whiteSpace=wrap;html=1;" parent="6kUc-nbutkC8Rg-sOoLc-40" vertex="1">
          <mxGeometry x="10" y="120" width="90" height="40" as="geometry" />
        </mxCell>
        <mxCell id="6kUc-nbutkC8Rg-sOoLc-47" value="Hobbies/Interest" style="rounded=1;whiteSpace=wrap;html=1;" parent="6kUc-nbutkC8Rg-sOoLc-40" vertex="1">
          <mxGeometry x="110" y="120" width="90" height="40" as="geometry" />
        </mxCell>
        <mxCell id="6kUc-nbutkC8Rg-sOoLc-46" value="Culture ethnicity" style="rounded=1;whiteSpace=wrap;html=1;" parent="6kUc-nbutkC8Rg-sOoLc-40" vertex="1">
          <mxGeometry x="210" y="120" width="90" height="40" as="geometry" />
        </mxCell>
        <mxCell id="6kUc-nbutkC8Rg-sOoLc-45" value="Contact" style="rounded=1;whiteSpace=wrap;html=1;arcSize=15;" parent="6kUc-nbutkC8Rg-sOoLc-40" vertex="1">
          <mxGeometry x="310" y="120" width="90" height="40" as="geometry" />
        </mxCell>
        <mxCell id="6kUc-nbutkC8Rg-sOoLc-48" value="&lt;font face=&quot;Times New Roman&quot;&gt;search&lt;/font&gt;" style="rounded=1;whiteSpace=wrap;html=1;" parent="6kUc-nbutkC8Rg-sOoLc-40" vertex="1">
          <mxGeometry x="410" y="120" width="450" height="40" as="geometry" />
        </mxCell>
        <mxCell id="6kUc-nbutkC8Rg-sOoLc-49" value="&lt;b&gt;&lt;font face=&quot;Lucida Console&quot;&gt;Hobbies/Interests&lt;/font&gt;&lt;/b&gt;" style="text;html=1;strokeColor=none;fillColor=none;align=center;verticalAlign=middle;whiteSpace=wrap;rounded=0;fontSize=30;" parent="6kUc-nbutkC8Rg-sOoLc-40" vertex="1">
          <mxGeometry x="25" y="195" width="330" height="20" as="geometry" />
        </mxCell>
        <mxCell id="6kUc-nbutkC8Rg-sOoLc-50" value="&lt;font style=&quot;font-size: 15px&quot;&gt;info&lt;/font&gt;" style="rounded=0;whiteSpace=wrap;html=1;fontSize=30;fontColor=#000000;fillColor=#FFFFFF;" parent="6kUc-nbutkC8Rg-sOoLc-40" vertex="1">
          <mxGeometry x="15" y="235" width="245" height="235" as="geometry" />
        </mxCell>
        <mxCell id="6kUc-nbutkC8Rg-sOoLc-123" value="pic" style="rounded=0;whiteSpace=wrap;html=1;fontSize=30;fontColor=#000000;fillColor=#FFFFFF;" parent="6kUc-nbutkC8Rg-sOoLc-40" vertex="1">
          <mxGeometry x="15" y="490" width="395" height="240" as="geometry" />
        </mxCell>
        <mxCell id="6kUc-nbutkC8Rg-sOoLc-124" value="pic" style="rounded=0;whiteSpace=wrap;html=1;fontSize=30;fontColor=#000000;fillColor=#FFFFFF;" parent="6kUc-nbutkC8Rg-sOoLc-40" vertex="1">
          <mxGeometry x="425" y="490" width="395" height="240" as="geometry" />
        </mxCell>
        <mxCell id="6kUc-nbutkC8Rg-sOoLc-125" value="pic" style="rounded=0;whiteSpace=wrap;html=1;fontSize=30;fontColor=#000000;fillColor=#FFFFFF;" parent="6kUc-nbutkC8Rg-sOoLc-40" vertex="1">
          <mxGeometry x="15" y="750" width="805" height="270" as="geometry" />
        </mxCell>
        <mxCell id="YJK-4N_REjmb29HESb3k-7" value="Vertical Container" style="swimlane;" parent="6kUc-nbutkC8Rg-sOoLc-40" vertex="1">
          <mxGeometry x="560" y="235" width="260" height="235" as="geometry" />
        </mxCell>
        <mxCell id="QHquJYZfWlVVxyJkf3ba-2" value="info" style="text;html=1;strokeColor=none;fillColor=none;align=center;verticalAlign=middle;whiteSpace=wrap;rounded=0;" vertex="1" parent="YJK-4N_REjmb29HESb3k-7">
          <mxGeometry x="120" y="107.5" width="40" height="20" as="geometry" />
        </mxCell>
        <mxCell id="6kUc-nbutkC8Rg-sOoLc-51" value="&lt;font style=&quot;font-size: 15px&quot;&gt;info&lt;/font&gt;" style="rounded=0;whiteSpace=wrap;html=1;fontSize=30;fontColor=#000000;fillColor=#FFFFFF;" parent="6kUc-nbutkC8Rg-sOoLc-40" vertex="1">
          <mxGeometry x="290" y="235" width="245" height="235" as="geometry" />
        </mxCell>
      </root>
    </mxGraphModel>
  </diagram>
  <diagram id="WG1sgyuTBdxgPToWTgC_" name="Page-2">
    <mxGraphModel dx="1422" dy="794" grid="1" gridSize="10" guides="1" tooltips="1" connect="1" arrows="1" fold="1" page="1" pageScale="1" pageWidth="850" pageHeight="1100" math="0" shadow="0">
      <root>
        <mxCell id="ZQNlqB5fMEbmGyn2NB9K-0" />
        <mxCell id="ZQNlqB5fMEbmGyn2NB9K-1" parent="ZQNlqB5fMEbmGyn2NB9K-0" />
      </root>
    </mxGraphModel>
  </diagram>
</mxfile>
